inDegrees=no
num_controls=7
num_derivatives=13
num_iterations=109
num_multipliers=7
num_parameters=0
num_slacks=7
num_states=26
objective=0.496917
objective_accelerations=0.032414
objective_balance=0.003262
objective_effort=0.035154
objective_height=0.420585
objective_ligament=0.005500
solver_duration=1257.898279
status=Solve_Succeeded
success=true
DataType=double
version=3
OpenSimVersion=4.5
endheader
time	/jointset/ground_pelvis/pelvis_tilt/value	/jointset/ground_pelvis/pelvis_tx/value	/jointset/ground_pelvis/pelvis_ty/value	/jointset/hip_r/hip_flexion_r/value	/jointset/hip_r/hip_adduction_r/value	/jointset/hip_r/hip_rotation_r/value	/jointset/back/lumbar_extension/value	/jointset/patellofemoral_r/patellar_flexion_r/value	/jointset/knee_r/knee_flexion_r/value	/jointset/knee_r/knee_adduction_r/value	/jointset/knee_r/knee_rotation_r/value	/jointset/ankle_r/ankle_angle_r/value	/jointset/subtalar_r/subtalar_angle_r/value	/jointset/ground_pelvis/pelvis_tilt/speed	/jointset/ground_pelvis/pelvis_tx/speed	/jointset/ground_pelvis/pelvis_ty/speed	/jointset/hip_r/hip_flexion_r/speed	/jointset/hip_r/hip_adduction_r/speed	/jointset/hip_r/hip_rotation_r/speed	/jointset/back/lumbar_extension/speed	/jointset/patellofemoral_r/patellar_flexion_r/speed	/jointset/knee_r/knee_flexion_r/speed	/jointset/knee_r/knee_adduction_r/speed	/jointset/knee_r/knee_rotation_r/speed	/jointset/ankle_r/ankle_angle_r/speed	/jointset/subtalar_r/subtalar_angle_r/speed	/forceset/tau_hip_flexion_r	/forceset/tau_hip_adduction_r	/forceset/tau_hip_rotation_r	/forceset/tau_knee_flexion_r	/forceset/tau_ankle_angle_r	/forceset/tau_subtalar_angle_r	/forceset/tau_lumbar_extension	lambda_cid13_p0	lambda_cid14_p0	lambda_cid14_p1	lambda_cid14_p2	lambda_cid14_p3	lambda_cid14_p4	lambda_cid14_p5	/jointset/ground_pelvis/pelvis_tilt/accel	/jointset/ground_pelvis/pelvis_tx/accel	/jointset/ground_pelvis/pelvis_ty/accel	/jointset/hip_r/hip_flexion_r/accel	/jointset/hip_r/hip_adduction_r/accel	/jointset/hip_r/hip_rotation_r/accel	/jointset/back/lumbar_extension/accel	/jointset/patellofemoral_r/patellar_flexion_r/accel	/jointset/knee_r/knee_flexion_r/accel	/jointset/knee_r/knee_adduction_r/accel	/jointset/knee_r/knee_rotation_r/accel	/jointset/ankle_r/ankle_angle_r/accel	/jointset/subtalar_r/subtalar_angle_r/accel	gamma_cid13_p0	gamma_cid14_p0	gamma_cid14_p1	gamma_cid14_p2	gamma_cid14_p3	gamma_cid14_p4	gamma_cid14_p5
1.5	-0.1086445855032759	0.06132712022763318	0.8707881540698889	0.6673301137286574	-0.2275630862448952	-0.143498584140623	-0.2820808459135991	0.646003240272396	0.6460032402714886	0.04165840891710745	0.1744290524472174	0.2574289468705522	0.05842570017307194	0.2351685316475742	0.1160548975440289	0.324370898840677	-1.443706612763608	0.01978212323884645	-0.2823430238916075	0.7008002391363353	-1.740359661522225	-1.740359661522413	0.2740748084395803	0.0002400946062724208	-0.6209771183622517	-0.1517496512610597	-0.0667472911979545	-0.01621871267659792	0.006739110898414905	-0.3219267889434413	0.05499620366285353	-0.01190842737232185	0.1238623035500581	-34.29783522302996	-24.12850286671708	-5.369471227133936	-3.283890665879472	3.225062731938469	-663.3416914446424	57.26242036656325	0.04102457087180254	0.275972720477523	-0.4352191496073265	-0.7509877122684975	-0.01575072455739685	-0.5680653255108646	1.255461556796253	-1.054628542760928	-1.054628542760947	0.3834866913542838	0.009007748914597609	-0.4653767749598817	-0.03121423124565697	1.156651872733346e-07	1.505932250888898e-07	-5.876221274204703e-07	1.216395452590579e-06	-1.697288738739483e-08	1.805138579368732e-07	-8.890846292924476e-07
1.51	-0.1062912298970443	0.06250128762580612	0.8740093559700545	0.6528574963819548	-0.2273668323566686	-0.1463493444023904	-0.2750110984053071	0.6285494556575386	0.6285494556568531	0.04442024094961044	0.1744320467585296	0.2511965446745759	0.05690577839142606	0.2354718968035677	0.1187581728685355	0.319799063300399	-1.450607224299948	0.0194652518273792	-0.2877725946178443	0.7130328579208943	-1.750133003164644	-1.750133003164589	0.2782897275549351	0.0003417566317605929	-0.6254118657151623	-0.1522123269039031	-0.06115359190378785	-0.01820018984600954	0.006092412982764817	-0.3188428608087573	0.05911585725841701	-0.012623743127492	0.118638955475179	-35.19283110750472	-22.67297049872607	-5.313100093464891	-3.421013363622095	2.72259201545566	-660.1442193406082	57.43787468492167	0.02040345546155523	0.2644434705435371	-0.4786896867955658	-0.6281346687390298	-0.04002655005973454	-0.524730487708565	1.189701349189847	-0.8990744729587767	-0.8990744729224273	0.440177600996287	0.008412796150105024	-0.4187895145554449	-0.05041047326359846	1.259199457402328e-07	1.534509730462353e-07	-7.103350355893967e-07	1.24609560280726e-06	-6.049729230751995e-09	1.892604214763435e-07	-9.783120514386235e-07
1.52	-0.1039357584457554	0.06370187548364534	0.877182734728706	0.6383221655609994	-0.2271738214226857	-0.1492532658797211	-0.26782251684719	0.6110058601266676	0.6110058601261993	0.04722415878914118	0.1744355911634436	0.2449225418452504	0.05538190660485959	0.2355917006594981	0.121338989477285	0.3148062705378389	-1.456249307613184	0.01913353239117478	-0.2929752670052145	0.7245670491016216	-1.758321844726118	-1.758321844725821	0.2824919698450991	0.0003501133286156379	-0.6292972450320243	-0.1525396522451426	-0.05555989260964193	-0.02018166701540362	0.005445715067011228	-0.3157589326740744	0.06323551085398729	-0.01333905888263428	0.113415607400277	-36.05478431763131	-21.22606610128548	-5.255635010253046	-3.561286559668044	2.215400640656931	-657.0891354566829	57.68592305457464	0.004312310859220615	0.2514809773260653	-0.5194105940637146	-0.4992820676477628	-0.01872032950480006	-0.522685657737558	1.115776036029957	-0.7377285265718794	-0.7377285265718887	0.3809513263160876	-0.009653316812042961	-0.3555031677501689	-0.004144170924854227	1.358068111027263e-07	1.549061064915263e-07	-8.341453890546581e-07	1.266992941516454e-06	5.862709034809017e-09	1.962444661765096e-07	-1.06360112785135e-06
1.53	-0.1015800282031569	0.06492762768414642	0.8803041343520998	0.6237367670174994	-0.2269842361933875	-0.152208476833619	-0.2605221866936588	0.5933883864074507	0.5933883864072036	0.05006984783990078	0.1744391055001348	0.2386124638218811	0.05385541051760606	0.2355230315917853	0.1237874863366577	0.3094089547689701	-1.460612621038162	0.0187827382030412	-0.2980439678705803	0.7353695911299911	-1.764897086118346	-1.764897086118546	0.2866270152485103	0.0003482593459437219	-0.6326211003629557	-0.1527333166409696	-0.04984665762978886	-0.02232151675610886	0.004811240914469988	-0.3128456363015595	0.06758839406734747	-0.01419126689688844	0.1081092035382404	-36.87910092782049	-19.71882427314689	-5.255230055416252	-3.683126976619331	1.695376574685671	-654.1413102076937	57.88146481908679	-0.01713910190095403	0.2379445505160054	-0.5595561556359451	-0.3721707986060862	-0.043258234587407	-0.4952927647128474	1.043084715125381	-0.5760800731785678	-0.5760800732530788	0.4268902934495319	0.004096769947065313	-0.3062164384415205	-0.02305018287358011	1.4530279004179e-07	1.548709620177596e-07	-9.591217781472754e-07	1.278537292998943e-06	1.882625741609558e-08	2.013558346099149e-07	-1.144705711922287e-06
